<?xml version="1.0" standalone="no"?>
<!DOCTYPE svg PUBLIC "-//W3C//DTD SVG 20010904//EN"
 "http://www.w3.org/TR/2001/REC-SVG-20010904/DTD/svg10.dtd">
<svg version="1.0" xmlns="http://www.w3.org/2000/svg"
 width="16.000000pt" height="16.000000pt" viewBox="0 0 16.000000 16.000000"
 preserveAspectRatio="xMidYMid meet">
<g transform="translate(0.000000,16.000000) scale(0.100000,-0.100000)"
fill="#000000" stroke="none">
<path d="M20 80 c0 -44 4 -80 8 -80 4 0 8 36 8 80 0 44 -4 80 -8 80 -4 0 -8
-36 -8 -80z"/>
<path d="M60 80 c0 -44 4 -80 8 -80 4 0 8 36 8 80 0 44 -4 80 -8 80 -4 0 -8
-36 -8 -80z"/>
<path d="M100 80 c0 -44 4 -80 8 -80 4 0 8 36 8 80 0 44 -4 80 -8 80 -4 0 -8
-36 -8 -80z"/>
</g>
</svg>
